<svg xmlns="http://www.w3.org/2000/svg" id="parallelogram-image-trans-11-n12-figure" width="310" height="310" viewBox="0 0 310 310">
  <defs>
    <clipPath id="parallelogram-image-trans-11-n12-clipPath-0">
      <rect x="5.0" y="5.0" width="300.0" height="300.0"/>
    </clipPath>
    <clipPath id="parallelogram-image-trans-11-n12-clipPath-1">
      <rect x="5.0" y="5.0" width="300.0" height="300.0"/>
    </clipPath>
    <marker id="parallelogram-image-trans-11-n12-arrow-head-end-3_None_24_60-blue" markerWidth="13.5" markerHeight="12.0" markerUnits="userSpaceOnUse" orient="auto-start-reverse" refX="9.8" refY="6.0">
      <path d="M 13.5 6.0L 0.0 12.0L 2.6 7.5L 2.6 4.5L 0.0 0.0Z" fill="blue" stroke="none"/>
    </marker>
    <marker id="parallelogram-image-trans-11-n12-arrow-head-end-3_None_24_60-blue-outline" markerWidth="17.5" markerHeight="16.0" markerUnits="userSpaceOnUse" orient="auto-start-reverse" refX="11.8" refY="8.0">
      <path d="M 16.3 9.8 L 2.8 15.8 A 2 2 0 0 1 0.0 14.0 L 0.0 2.0 A 2 2 0 0 1 2.8 0.2 L 16.3 6.2 A 2 2 0 0 1 16.3 9.8 Z" fill="white" stroke="none"/>
    </marker>
    <marker id="parallelogram-image-trans-11-n12-arrow-head-end-3_None_24_60-red" markerWidth="13.5" markerHeight="12.0" markerUnits="userSpaceOnUse" orient="auto-start-reverse" refX="9.8" refY="6.0">
      <path d="M 13.5 6.0L 0.0 12.0L 2.6 7.5L 2.6 4.5L 0.0 0.0Z" fill="red" stroke="none"/>
    </marker>
    <marker id="parallelogram-image-trans-11-n12-arrow-head-end-3_None_24_60-red-outline" markerWidth="17.5" markerHeight="16.0" markerUnits="userSpaceOnUse" orient="auto-start-reverse" refX="11.8" refY="8.0">
      <path d="M 16.3 9.8 L 2.8 15.8 A 2 2 0 0 1 0.0 14.0 L 0.0 2.0 A 2 2 0 0 1 2.8 0.2 L 16.3 6.2 A 2 2 0 0 1 16.3 9.8 Z" fill="white" stroke="none"/>
    </marker>
  </defs>
  <g id="parallelogram-image-trans-11-n12-grid-axes">
    <g id="parallelogram-image-trans-11-n12-grid" stroke="#ccc" stroke-width="1">
      <line x1="5.0" y1="305.0" x2="5.0" y2="5.0"/>
      <line x1="42.5" y1="305.0" x2="42.5" y2="5.0"/>
      <line x1="80.0" y1="305.0" x2="80.0" y2="5.0"/>
      <line x1="117.5" y1="305.0" x2="117.5" y2="5.0"/>
      <line x1="155.0" y1="305.0" x2="155.0" y2="5.0"/>
      <line x1="192.5" y1="305.0" x2="192.5" y2="5.0"/>
      <line x1="230.0" y1="305.0" x2="230.0" y2="5.0"/>
      <line x1="267.5" y1="305.0" x2="267.5" y2="5.0"/>
      <line x1="305.0" y1="305.0" x2="305.0" y2="5.0"/>
      <line x1="5.0" y1="305.0" x2="305.0" y2="305.0"/>
      <line x1="5.0" y1="267.5" x2="305.0" y2="267.5"/>
      <line x1="5.0" y1="230.0" x2="305.0" y2="230.0"/>
      <line x1="5.0" y1="192.5" x2="305.0" y2="192.5"/>
      <line x1="5.0" y1="155.0" x2="305.0" y2="155.0"/>
      <line x1="5.0" y1="117.5" x2="305.0" y2="117.5"/>
      <line x1="5.0" y1="80.0" x2="305.0" y2="80.0"/>
      <line x1="5.0" y1="42.5" x2="305.0" y2="42.5"/>
      <line x1="5.0" y1="5.0" x2="305.0" y2="5.0"/>
    </g>
    <g id="parallelogram-image-trans-11-n12-axes" stroke="black" stroke-width="2">
      <line id="parallelogram-image-trans-11-n12-line-18" x1="5.0" y1="230.0" x2="305.0" y2="230.0" stroke="black" stroke-width="2"/>
      <g>
        <line id="parallelogram-image-trans-11-n12-line-19" x1="155.0" y1="233.0" x2="155.0" y2="227.0"/>
        <line id="parallelogram-image-trans-11-n12-line-20" x1="230.0" y1="233.0" x2="230.0" y2="227.0"/>
      </g>
      <line id="parallelogram-image-trans-11-n12-line-21" x1="80.0" y1="305.0" x2="80.0" y2="5.0" stroke="black" stroke-width="2"/>
      <g>
        <line id="parallelogram-image-trans-11-n12-line-22" x1="77.0" y1="155.0" x2="83.0" y2="155.0"/>
        <line id="parallelogram-image-trans-11-n12-line-23" x1="77.0" y1="80.0" x2="83.0" y2="80.0"/>
      </g>
    </g>
    <g id="parallelogram-image-trans-11-n12-label-0" transform="translate(301.0,226.0) translate(-10.4,-8.2)">
      <g id="parallelogram-image-trans-11-n12-g-2">
        <svg xmlns:xlink="http://www.w3.org/1999/xlink" style="vertical-align: -0.200px" width="10.352px" height="8.200px" role="img" focusable="false" viewBox="0 -442 572 453" x="0.0" y="0.0">
          <defs>
            <path id="parallelogram-image-trans-11-n12-MJX-2-TEX-I-1D465" d="M52 289Q59 331 106 386T222 442Q257 442 286 424T329 379Q371 442 430 442Q467 442 494 420T522 361Q522 332 508 314T481 292T458 288Q439 288 427 299T415 328Q415 374 465 391Q454 404 425 404Q412 404 406 402Q368 386 350 336Q290 115 290 78Q290 50 306 38T341 26Q378 26 414 59T463 140Q466 150 469 151T485 153H489Q504 153 504 145Q504 144 502 134Q486 77 440 33T333 -11Q263 -11 227 52Q186 -10 133 -10H127Q78 -10 57 16T35 71Q35 103 54 123T99 143Q142 143 142 101Q142 81 130 66T107 46T94 41L91 40Q91 39 97 36T113 29T132 26Q168 26 194 71Q203 87 217 139T245 247T261 313Q266 340 266 352Q266 380 251 392T217 404Q177 404 142 372T93 290Q91 281 88 280T72 278H58Q52 284 52 289Z"/>
          </defs>
          <g stroke="currentColor" fill="currentColor" stroke-width="0" transform="scale(1,-1)">
            <g data-mml-node="math">
              <g data-mml-node="mi" data-semantic-type="identifier" data-semantic-role="latinletter" data-semantic-font="italic" data-semantic-annotation="clearspeak:simple" data-semantic-id="0" data-semantic-speech="x">
                <use data-c="1D465" xlink:href="#parallelogram-image-trans-11-n12-MJX-2-TEX-I-1D465"/>
              </g>
            </g>
          </g>
        </svg>
      </g>
    </g>
    <g id="parallelogram-image-trans-11-n12-label-1" transform="translate(84.0,9.0) translate(0.0,-0.0)">
      <g id="parallelogram-image-trans-11-n12-g-3">
        <svg xmlns:xlink="http://www.w3.org/1999/xlink" style="vertical-align: -3.712px" width="8.872px" height="11.712px" role="img" focusable="false" viewBox="0 -442 490 647" x="0.0" y="0.0">
          <defs>
            <path id="parallelogram-image-trans-11-n12-MJX-3-TEX-I-1D466" d="M21 287Q21 301 36 335T84 406T158 442Q199 442 224 419T250 355Q248 336 247 334Q247 331 231 288T198 191T182 105Q182 62 196 45T238 27Q261 27 281 38T312 61T339 94Q339 95 344 114T358 173T377 247Q415 397 419 404Q432 431 462 431Q475 431 483 424T494 412T496 403Q496 390 447 193T391 -23Q363 -106 294 -155T156 -205Q111 -205 77 -183T43 -117Q43 -95 50 -80T69 -58T89 -48T106 -45Q150 -45 150 -87Q150 -107 138 -122T115 -142T102 -147L99 -148Q101 -153 118 -160T152 -167H160Q177 -167 186 -165Q219 -156 247 -127T290 -65T313 -9T321 21L315 17Q309 13 296 6T270 -6Q250 -11 231 -11Q185 -11 150 11T104 82Q103 89 103 113Q103 170 138 262T173 379Q173 380 173 381Q173 390 173 393T169 400T158 404H154Q131 404 112 385T82 344T65 302T57 280Q55 278 41 278H27Q21 284 21 287Z"/>
          </defs>
          <g stroke="currentColor" fill="currentColor" stroke-width="0" transform="scale(1,-1)">
            <g data-mml-node="math">
              <g data-mml-node="mi" data-semantic-type="identifier" data-semantic-role="latinletter" data-semantic-font="italic" data-semantic-annotation="clearspeak:simple" data-semantic-id="0" data-semantic-speech="y">
                <use data-c="1D466" xlink:href="#parallelogram-image-trans-11-n12-MJX-3-TEX-I-1D466"/>
              </g>
            </g>
          </g>
        </svg>
      </g>
    </g>
    <g id="parallelogram-image-trans-11-n12-label-2" transform="translate(155.0,241.0) translate(-4.5,-0.0)">
      <g id="parallelogram-image-trans-11-n12-g-4">
        <svg xmlns:xlink="http://www.w3.org/1999/xlink" style="vertical-align: 0.000px" width="9.048px" height="12.056px" role="img" focusable="false" viewBox="0 -666 500 666" x="0.0" y="0.0">
          <defs>
            <path id="parallelogram-image-trans-11-n12-MJX-4-TEX-N-31" d="M213 578L200 573Q186 568 160 563T102 556H83V602H102Q149 604 189 617T245 641T273 663Q275 666 285 666Q294 666 302 660V361L303 61Q310 54 315 52T339 48T401 46H427V0H416Q395 3 257 3Q121 3 100 0H88V46H114Q136 46 152 46T177 47T193 50T201 52T207 57T213 61V578Z"/>
          </defs>
          <g stroke="currentColor" fill="currentColor" stroke-width="0" transform="scale(1,-1)">
            <g data-mml-node="math">
              <g data-mml-node="mtext" data-semantic-type="text" data-semantic-role="integer" data-semantic-font="normal" data-semantic-annotation="clearspeak:unit" data-semantic-id="0" data-semantic-speech="1">
                <use data-c="31" xlink:href="#parallelogram-image-trans-11-n12-MJX-4-TEX-N-31"/>
              </g>
            </g>
          </g>
        </svg>
      </g>
    </g>
    <g id="parallelogram-image-trans-11-n12-label-3" transform="translate(230.0,241.0) translate(-4.5,-0.0)">
      <g id="parallelogram-image-trans-11-n12-g-5">
        <svg xmlns:xlink="http://www.w3.org/1999/xlink" style="vertical-align: 0.000px" width="9.048px" height="12.056px" role="img" focusable="false" viewBox="0 -666 500 666" x="0.0" y="0.0">
          <defs>
            <path id="parallelogram-image-trans-11-n12-MJX-5-TEX-N-32" d="M109 429Q82 429 66 447T50 491Q50 562 103 614T235 666Q326 666 387 610T449 465Q449 422 429 383T381 315T301 241Q265 210 201 149L142 93L218 92Q375 92 385 97Q392 99 409 186V189H449V186Q448 183 436 95T421 3V0H50V19V31Q50 38 56 46T86 81Q115 113 136 137Q145 147 170 174T204 211T233 244T261 278T284 308T305 340T320 369T333 401T340 431T343 464Q343 527 309 573T212 619Q179 619 154 602T119 569T109 550Q109 549 114 549Q132 549 151 535T170 489Q170 464 154 447T109 429Z"/>
          </defs>
          <g stroke="currentColor" fill="currentColor" stroke-width="0" transform="scale(1,-1)">
            <g data-mml-node="math">
              <g data-mml-node="mtext" data-semantic-type="text" data-semantic-role="integer" data-semantic-font="normal" data-semantic-annotation="clearspeak:unit" data-semantic-id="0" data-semantic-speech="2">
                <use data-c="32" xlink:href="#parallelogram-image-trans-11-n12-MJX-5-TEX-N-32"/>
              </g>
            </g>
          </g>
        </svg>
      </g>
    </g>
    <g id="parallelogram-image-trans-11-n12-label-4" transform="translate(69.0,155.0) translate(-9.0,-6.0)">
      <g id="parallelogram-image-trans-11-n12-g-6">
        <svg xmlns:xlink="http://www.w3.org/1999/xlink" style="vertical-align: 0.000px" width="9.048px" height="12.056px" role="img" focusable="false" viewBox="0 -666 500 666" x="0.0" y="0.0">
          <defs>
            <path id="parallelogram-image-trans-11-n12-MJX-6-TEX-N-31" d="M213 578L200 573Q186 568 160 563T102 556H83V602H102Q149 604 189 617T245 641T273 663Q275 666 285 666Q294 666 302 660V361L303 61Q310 54 315 52T339 48T401 46H427V0H416Q395 3 257 3Q121 3 100 0H88V46H114Q136 46 152 46T177 47T193 50T201 52T207 57T213 61V578Z"/>
          </defs>
          <g stroke="currentColor" fill="currentColor" stroke-width="0" transform="scale(1,-1)">
            <g data-mml-node="math">
              <g data-mml-node="mtext" data-semantic-type="text" data-semantic-role="integer" data-semantic-font="normal" data-semantic-annotation="clearspeak:unit" data-semantic-id="0" data-semantic-speech="1">
                <use data-c="31" xlink:href="#parallelogram-image-trans-11-n12-MJX-6-TEX-N-31"/>
              </g>
            </g>
          </g>
        </svg>
      </g>
    </g>
    <g id="parallelogram-image-trans-11-n12-label-5" transform="translate(69.0,80.0) translate(-9.0,-6.0)">
      <g id="parallelogram-image-trans-11-n12-g-7">
        <svg xmlns:xlink="http://www.w3.org/1999/xlink" style="vertical-align: 0.000px" width="9.048px" height="12.056px" role="img" focusable="false" viewBox="0 -666 500 666" x="0.0" y="0.0">
          <defs>
            <path id="parallelogram-image-trans-11-n12-MJX-7-TEX-N-32" d="M109 429Q82 429 66 447T50 491Q50 562 103 614T235 666Q326 666 387 610T449 465Q449 422 429 383T381 315T301 241Q265 210 201 149L142 93L218 92Q375 92 385 97Q392 99 409 186V189H449V186Q448 183 436 95T421 3V0H50V19V31Q50 38 56 46T86 81Q115 113 136 137Q145 147 170 174T204 211T233 244T261 278T284 308T305 340T320 369T333 401T340 431T343 464Q343 527 309 573T212 619Q179 619 154 602T119 569T109 550Q109 549 114 549Q132 549 151 535T170 489Q170 464 154 447T109 429Z"/>
          </defs>
          <g stroke="currentColor" fill="currentColor" stroke-width="0" transform="scale(1,-1)">
            <g data-mml-node="math">
              <g data-mml-node="mtext" data-semantic-type="text" data-semantic-role="integer" data-semantic-font="normal" data-semantic-annotation="clearspeak:unit" data-semantic-id="0" data-semantic-speech="2">
                <use data-c="32" xlink:href="#parallelogram-image-trans-11-n12-MJX-7-TEX-N-32"/>
              </g>
            </g>
          </g>
        </svg>
      </g>
    </g>
  </g>
  <g id="parallelogram-image-trans-11-n12-g-0">
    <g transform="translate(-1.0,74.0) translate(-44.3,-18.1)">
      <g id="parallelogram-image-trans-11-n12-g-8">
        <svg xmlns:xlink="http://www.w3.org/1999/xlink" style="vertical-align: -4.528px" width="44.264px" height="18.096px" role="img" focusable="false" viewBox="0 -750 2445.6 1000" x="0.0" y="0.0">
          <defs>
            <path id="parallelogram-image-trans-11-n12-MJX-8-TEX-I-1D447" d="M40 437Q21 437 21 445Q21 450 37 501T71 602L88 651Q93 669 101 677H569H659Q691 677 697 676T704 667Q704 661 687 553T668 444Q668 437 649 437Q640 437 637 437T631 442L629 445Q629 451 635 490T641 551Q641 586 628 604T573 629Q568 630 515 631Q469 631 457 630T439 622Q438 621 368 343T298 60Q298 48 386 46Q418 46 427 45T436 36Q436 31 433 22Q429 4 424 1L422 0Q419 0 415 0Q410 0 363 1T228 2Q99 2 64 0H49Q43 6 43 9T45 27Q49 40 55 46H83H94Q174 46 189 55Q190 56 191 56Q196 59 201 76T241 233Q258 301 269 344Q339 619 339 625Q339 630 310 630H279Q212 630 191 624Q146 614 121 583T67 467Q60 445 57 441T43 437H40Z"/>
            <path id="parallelogram-image-trans-11-n12-MJX-8-TEX-N-2061" d=""/>
            <path id="parallelogram-image-trans-11-n12-MJX-8-TEX-N-28" d="M94 250Q94 319 104 381T127 488T164 576T202 643T244 695T277 729T302 750H315H319Q333 750 333 741Q333 738 316 720T275 667T226 581T184 443T167 250T184 58T225 -81T274 -167T316 -220T333 -241Q333 -250 318 -250H315H302L274 -226Q180 -141 137 -14T94 250Z"/>
            <path id="parallelogram-image-trans-11-n12-MJX-8-TEX-B-1D41E" d="M32 225Q32 332 102 392T272 452H283Q382 452 436 401Q494 343 494 243Q494 226 486 222T440 217Q431 217 394 217T327 218H175V209Q175 177 179 154T196 107T236 69T306 50Q312 49 323 49Q376 49 410 85Q421 99 427 111T434 127T442 133T463 135H468Q494 135 494 117Q494 110 489 97T468 66T431 32T373 5T292 -6Q181 -6 107 55T32 225ZM383 276Q377 346 348 374T280 402Q253 402 230 390T195 357Q179 331 176 279V266H383V276Z"/>
            <path id="parallelogram-image-trans-11-n12-MJX-8-TEX-N-32" d="M109 429Q82 429 66 447T50 491Q50 562 103 614T235 666Q326 666 387 610T449 465Q449 422 429 383T381 315T301 241Q265 210 201 149L142 93L218 92Q375 92 385 97Q392 99 409 186V189H449V186Q448 183 436 95T421 3V0H50V19V31Q50 38 56 46T86 81Q115 113 136 137Q145 147 170 174T204 211T233 244T261 278T284 308T305 340T320 369T333 401T340 431T343 464Q343 527 309 573T212 619Q179 619 154 602T119 569T109 550Q109 549 114 549Q132 549 151 535T170 489Q170 464 154 447T109 429Z"/>
            <path id="parallelogram-image-trans-11-n12-MJX-8-TEX-N-29" d="M60 749L64 750Q69 750 74 750H86L114 726Q208 641 251 514T294 250Q294 182 284 119T261 12T224 -76T186 -143T145 -194T113 -227T90 -246Q87 -249 86 -250H74Q66 -250 63 -250T58 -247T55 -238Q56 -237 66 -225Q221 -64 221 250T66 725Q56 737 55 738Q55 746 60 749Z"/>
          </defs>
          <g stroke="currentColor" fill="currentColor" stroke-width="0" transform="scale(1,-1)">
            <g data-mml-node="math" data-semantic-type="appl" data-semantic-role="simple function" data-semantic-id="8" data-semantic-children="0,6" data-semantic-content="7,0" data-semantic-speech="upper T left parenthesis bold e 2 right parenthesis">
              <g data-mml-node="mi" data-semantic-type="identifier" data-semantic-role="simple function" data-semantic-font="italic" data-semantic-annotation="clearspeak:simple" data-semantic-id="0" data-semantic-parent="8" data-semantic-operator="appl" data-semantic-speech="upper T">
                <use data-c="1D447" xlink:href="#parallelogram-image-trans-11-n12-MJX-8-TEX-I-1D447"/>
              </g>
              <g data-mml-node="mo" data-semantic-type="punctuation" data-semantic-role="application" data-semantic-id="7" data-semantic-parent="8" data-semantic-added="true" data-semantic-operator="appl" data-semantic-speech="of" transform="translate(704,0)">
                <use data-c="2061" xlink:href="#parallelogram-image-trans-11-n12-MJX-8-TEX-N-2061"/>
              </g>
              <g data-mml-node="mrow" data-semantic-type="fenced" data-semantic-role="leftright" data-semantic-id="6" data-semantic-children="4" data-semantic-content="1,5" data-semantic-parent="8" data-semantic-speech="left parenthesis bold e 2 right parenthesis" transform="translate(704,0)">
                <g data-mml-node="mo" data-semantic-type="fence" data-semantic-role="open" data-semantic-id="1" data-semantic-parent="6" data-semantic-operator="fenced" data-semantic-speech="left parenthesis">
                  <use data-c="28" xlink:href="#parallelogram-image-trans-11-n12-MJX-8-TEX-N-28"/>
                </g>
                <g data-mml-node="msub" data-semantic-type="subscript" data-semantic-role="latinletter" data-semantic-id="4" data-semantic-children="2,3" data-semantic-parent="6" data-semantic-speech="bold e 2" transform="translate(389,0)">
                  <g data-mml-node="TeXAtom" data-mjx-texclass="ORD">
                    <g data-mml-node="mi" data-semantic-type="identifier" data-semantic-role="latinletter" data-semantic-font="bold" data-semantic-annotation="clearspeak:simple" data-semantic-id="2" data-semantic-parent="4" data-semantic-attributes="texclass:ORD" data-semantic-speech="bold e" data-semantic-prefix="Base">
                      <use data-c="1D41E" xlink:href="#parallelogram-image-trans-11-n12-MJX-8-TEX-B-1D41E"/>
                    </g>
                  </g>
                  <g data-mml-node="mn" transform="translate(560,-150) scale(0.707)" data-semantic-type="number" data-semantic-role="integer" data-semantic-font="normal" data-semantic-annotation="clearspeak:simple" data-semantic-id="3" data-semantic-parent="4" data-semantic-speech="2" data-semantic-prefix="Subscript">
                    <use data-c="32" xlink:href="#parallelogram-image-trans-11-n12-MJX-8-TEX-N-32"/>
                  </g>
                </g>
                <g data-mml-node="mo" data-semantic-type="fence" data-semantic-role="close" data-semantic-id="5" data-semantic-parent="6" data-semantic-operator="fenced" data-semantic-speech="right parenthesis" transform="translate(1352.6,0)">
                  <use data-c="29" xlink:href="#parallelogram-image-trans-11-n12-MJX-8-TEX-N-29"/>
                </g>
              </g>
            </g>
          </g>
        </svg>
      </g>
    </g>
    <path stroke="blue" stroke-width="3" fill="none" marker-end="url(#parallelogram-image-trans-11-n12-arrow-head-end-3_None_24_60-blue)" d="M 80.0 230.0 L 6.6 83.3"/>
  </g>
  <g id="parallelogram-image-trans-11-n12-g-1">
    <g transform="translate(161.0,155.0) translate(0.0,-9.0)">
      <g id="parallelogram-image-trans-11-n12-g-9">
        <svg xmlns:xlink="http://www.w3.org/1999/xlink" style="vertical-align: -4.528px" width="44.264px" height="18.096px" role="img" focusable="false" viewBox="0 -750 2445.6 1000" x="0.0" y="0.0">
          <defs>
            <path id="parallelogram-image-trans-11-n12-MJX-9-TEX-I-1D447" d="M40 437Q21 437 21 445Q21 450 37 501T71 602L88 651Q93 669 101 677H569H659Q691 677 697 676T704 667Q704 661 687 553T668 444Q668 437 649 437Q640 437 637 437T631 442L629 445Q629 451 635 490T641 551Q641 586 628 604T573 629Q568 630 515 631Q469 631 457 630T439 622Q438 621 368 343T298 60Q298 48 386 46Q418 46 427 45T436 36Q436 31 433 22Q429 4 424 1L422 0Q419 0 415 0Q410 0 363 1T228 2Q99 2 64 0H49Q43 6 43 9T45 27Q49 40 55 46H83H94Q174 46 189 55Q190 56 191 56Q196 59 201 76T241 233Q258 301 269 344Q339 619 339 625Q339 630 310 630H279Q212 630 191 624Q146 614 121 583T67 467Q60 445 57 441T43 437H40Z"/>
            <path id="parallelogram-image-trans-11-n12-MJX-9-TEX-N-2061" d=""/>
            <path id="parallelogram-image-trans-11-n12-MJX-9-TEX-N-28" d="M94 250Q94 319 104 381T127 488T164 576T202 643T244 695T277 729T302 750H315H319Q333 750 333 741Q333 738 316 720T275 667T226 581T184 443T167 250T184 58T225 -81T274 -167T316 -220T333 -241Q333 -250 318 -250H315H302L274 -226Q180 -141 137 -14T94 250Z"/>
            <path id="parallelogram-image-trans-11-n12-MJX-9-TEX-B-1D41E" d="M32 225Q32 332 102 392T272 452H283Q382 452 436 401Q494 343 494 243Q494 226 486 222T440 217Q431 217 394 217T327 218H175V209Q175 177 179 154T196 107T236 69T306 50Q312 49 323 49Q376 49 410 85Q421 99 427 111T434 127T442 133T463 135H468Q494 135 494 117Q494 110 489 97T468 66T431 32T373 5T292 -6Q181 -6 107 55T32 225ZM383 276Q377 346 348 374T280 402Q253 402 230 390T195 357Q179 331 176 279V266H383V276Z"/>
            <path id="parallelogram-image-trans-11-n12-MJX-9-TEX-N-31" d="M213 578L200 573Q186 568 160 563T102 556H83V602H102Q149 604 189 617T245 641T273 663Q275 666 285 666Q294 666 302 660V361L303 61Q310 54 315 52T339 48T401 46H427V0H416Q395 3 257 3Q121 3 100 0H88V46H114Q136 46 152 46T177 47T193 50T201 52T207 57T213 61V578Z"/>
            <path id="parallelogram-image-trans-11-n12-MJX-9-TEX-N-29" d="M60 749L64 750Q69 750 74 750H86L114 726Q208 641 251 514T294 250Q294 182 284 119T261 12T224 -76T186 -143T145 -194T113 -227T90 -246Q87 -249 86 -250H74Q66 -250 63 -250T58 -247T55 -238Q56 -237 66 -225Q221 -64 221 250T66 725Q56 737 55 738Q55 746 60 749Z"/>
          </defs>
          <g stroke="currentColor" fill="currentColor" stroke-width="0" transform="scale(1,-1)">
            <g data-mml-node="math" data-semantic-type="appl" data-semantic-role="simple function" data-semantic-id="8" data-semantic-children="0,6" data-semantic-content="7,0" data-semantic-speech="upper T left parenthesis bold e 1 right parenthesis">
              <g data-mml-node="mi" data-semantic-type="identifier" data-semantic-role="simple function" data-semantic-font="italic" data-semantic-annotation="clearspeak:simple" data-semantic-id="0" data-semantic-parent="8" data-semantic-operator="appl" data-semantic-speech="upper T">
                <use data-c="1D447" xlink:href="#parallelogram-image-trans-11-n12-MJX-9-TEX-I-1D447"/>
              </g>
              <g data-mml-node="mo" data-semantic-type="punctuation" data-semantic-role="application" data-semantic-id="7" data-semantic-parent="8" data-semantic-added="true" data-semantic-operator="appl" data-semantic-speech="of" transform="translate(704,0)">
                <use data-c="2061" xlink:href="#parallelogram-image-trans-11-n12-MJX-9-TEX-N-2061"/>
              </g>
              <g data-mml-node="mrow" data-semantic-type="fenced" data-semantic-role="leftright" data-semantic-id="6" data-semantic-children="4" data-semantic-content="1,5" data-semantic-parent="8" data-semantic-speech="left parenthesis bold e 1 right parenthesis" transform="translate(704,0)">
                <g data-mml-node="mo" data-semantic-type="fence" data-semantic-role="open" data-semantic-id="1" data-semantic-parent="6" data-semantic-operator="fenced" data-semantic-speech="left parenthesis">
                  <use data-c="28" xlink:href="#parallelogram-image-trans-11-n12-MJX-9-TEX-N-28"/>
                </g>
                <g data-mml-node="msub" data-semantic-type="subscript" data-semantic-role="latinletter" data-semantic-id="4" data-semantic-children="2,3" data-semantic-parent="6" data-semantic-speech="bold e 1" transform="translate(389,0)">
                  <g data-mml-node="TeXAtom" data-mjx-texclass="ORD">
                    <g data-mml-node="mi" data-semantic-type="identifier" data-semantic-role="latinletter" data-semantic-font="bold" data-semantic-annotation="clearspeak:simple" data-semantic-id="2" data-semantic-parent="4" data-semantic-attributes="texclass:ORD" data-semantic-speech="bold e" data-semantic-prefix="Base">
                      <use data-c="1D41E" xlink:href="#parallelogram-image-trans-11-n12-MJX-9-TEX-B-1D41E"/>
                    </g>
                  </g>
                  <g data-mml-node="mn" transform="translate(560,-150) scale(0.707)" data-semantic-type="number" data-semantic-role="integer" data-semantic-font="normal" data-semantic-annotation="clearspeak:simple" data-semantic-id="3" data-semantic-parent="4" data-semantic-speech="1" data-semantic-prefix="Subscript">
                    <use data-c="31" xlink:href="#parallelogram-image-trans-11-n12-MJX-9-TEX-N-31"/>
                  </g>
                </g>
                <g data-mml-node="mo" data-semantic-type="fence" data-semantic-role="close" data-semantic-id="5" data-semantic-parent="6" data-semantic-operator="fenced" data-semantic-speech="right parenthesis" transform="translate(1352.6,0)">
                  <use data-c="29" xlink:href="#parallelogram-image-trans-11-n12-MJX-9-TEX-N-29"/>
                </g>
              </g>
            </g>
          </g>
        </svg>
      </g>
    </g>
    <path stroke="red" stroke-width="3" fill="none" marker-end="url(#parallelogram-image-trans-11-n12-arrow-head-end-3_None_24_60-red)" d="M 80.0 230.0 L 152.4 157.6"/>
  </g>
  <path id="parallelogram-image-trans-11-n12-path-2" d="M 80.0 230.0 L 155.0 155.0 L 80.0 5.0 L 5.0 80.0" stroke="none" opacity="0.25" stroke-width="2" fill="blue" clip-path="url(#parallelogram-image-trans-11-n12-clipPath-1)"/>
</svg>
